<svg xmlns="http://www.w3.org/2000/svg" fill="none" viewBox="-0.5 -0.5 24 24" id="Arrow-Drop-Down--Streamline-Rounded-Material-Symbols.svg" height="24" width="24"><desc>Arrow Drop Down Streamline Icon: https://streamlinehq.com</desc><path fill="#000000" d="m11.116666666666667 13.991570833333334 -3.785416666666667 -3.761458333333333c-0.0319125 -0.031960416666666665 -0.059895833333333336 -0.06995833333333333 -0.08385416666666666 -0.11404166666666667 -0.023958333333333335 -0.044227083333333334 -0.0359375 -0.09152083333333334 -0.0359375 -0.14183333333333334 0 -0.10096041666666666 0.03301458333333333 -0.18735416666666668 0.09894791666666666 -0.2592291666666667 0.0658375 -0.071875 0.15261458333333333 -0.1078125 0.2604270833333333 -0.1078125h7.858333333333333c0.1078125 0 0.19473333333333334 0.037039583333333334 0.2606666666666667 0.11116666666666668 0.0658375 0.07393541666666667 0.09870833333333333 0.16028125000000001 0.09870833333333333 0.25898958333333333 0 0.02477291666666667 -0.03991458333333334 0.10901041666666668 -0.11979166666666667 0.25276041666666665l-3.785416666666667 3.761458333333333c-0.04791666666666667 0.04791666666666667 -0.10426666666666666 0.08783125 -0.16914583333333333 0.11979166666666667 -0.06483125 0.031960416666666665 -0.13622708333333333 0.04791666666666667 -0.2141875 0.04791666666666667 -0.07776875 0 -0.14916458333333335 -0.01595625 -0.2141875 -0.04791666666666667 -0.06483125 -0.031960416666666665 -0.12122916666666668 -0.071875 -0.16914583333333333 -0.11979166666666667Z" stroke-width="1"></path></svg>